<svg id="b3a89b9a-814f-4a2e-855f-87fccac9d298" data-name="Layer 1" xmlns="http://www.w3.org/2000/svg" viewBox="0 0 503.5 548.34"><defs><style>.e0788ca8-8e82-434c-8be9-f8942f45b2b9{fill:#fff;}</style></defs><path class="e0788ca8-8e82-434c-8be9-f8942f45b2b9" d="M242,165.79V294a388.85,388.85,0,0,1-57.15,14.4q-27,4.49-45.45,4.5-61.2,0-95.85-31.95T8.89,182.89q0-67.5,36.45-101t102.6-33.52q34.65,0,83.25,10.35,0,9-1.8,26.77t-3.6,25l-16.2-.45q-29.7-.9-46.35-.9-50,0-54.45,5.85-7.2,8.55-10.12,26.55a215,215,0,0,0-2.93,34.65q0,30.15,6.75,46.8t20.7,23.4q14,6.75,37.8,6.75h1.8v-87.3Z" transform="translate(-8.89 -48.34)"/><path class="e0788ca8-8e82-434c-8be9-f8942f45b2b9" d="M502,308H416.94l-15.3-64.8q-.9-3.6-2.92-12.38c-1.35-5.85-2.93-10.19-4.73-13.05a12.71,12.71,0,0,0-7.65-5.62q-12.6.45-36.9.45V308h-81V53.74q54.45-4.05,101.7-4.05,42.75,0,69.3,7t39.83,23.85q13.26,16.88,13.27,46.13,0,27.45-12.6,43t-40.5,18.68V191q15.75,1.35,26.33,10.12a42.51,42.51,0,0,1,14.17,22.28Zm-136.8-145.8q34.65,0,40.5-5.85,5.4-5.4,5.4-25.2,0-18.45-9.67-25.2t-31.73-6.75q-4.95,0-20.25.9v61.65Q353.49,162.19,365.19,162.19Z" transform="translate(-8.89 -48.34)"/><path class="e0788ca8-8e82-434c-8be9-f8942f45b2b9" d="M39.47,340.18H226.22v54H120.47V441h89.1v48.6h-89.1v52.2h105.3v54.9H39.47Z" transform="translate(-8.89 -48.34)"/><path class="e0788ca8-8e82-434c-8be9-f8942f45b2b9" d="M426.89,514.78v81.9h-81v-81l-86.4-175.5h82.35L376,423.43q5.4,12.6,9.9,26.55h.9q4.95-15.3,9.9-27.45l33.75-82.35h81.9Z" transform="translate(-8.89 -48.34)"/></svg>