<svg id="Layer_1" data-name="Layer 1" xmlns="http://www.w3.org/2000/svg" viewBox="0 0 335 118"><path d="M64.36,29.39c-9.15-.48-18.59,9.09-17.85,18.41a2.85,2.85,0,0,0,3.07,2.62c6.66-.57,15-12.05,16.54-18.68A1.9,1.9,0,0,0,64.36,29.39Z"/><path d="M34.92,82.72a4.38,4.38,0,0,0,0,3.82c.41.8,1,1.38,1.8,1.15,5.16-.13,9.78-8.42,10.88-11.89C41.81,76.16,37.24,77.82,34.92,82.72Z"/><path d="M74.85,4.77C51.06-5.67,21.13,10.15,8,40.1s-4.52,62.69,19.27,73.13S81,107.85,94.12,77.9,98.64,15.21,74.85,4.77Zm-3.1,72.87a4.89,4.89,0,0,1,2,4.6c-1,6.54-13-5.24-17.42-5.59C39.5,112.27,16,87.55,35,72.41c3.32-2.85,11.19-4.24,16-4.55,2.45-3,3.16-7.83,4.78-11.27a1.11,1.11,0,0,0-.54-.69c-19.13,9.47-19.36-16-8.87-25.54,5.42-5.66,14.91-9.73,22.22-7.16a8,8,0,0,1,5.19,6.46c1.37,9.26-3.9,9.2-7.89,19.06-2.95,7.63-4.11,13-7.64,21.07C61.81,70.34,68.44,75.12,71.75,77.64Z"/><path d="M126.87,61c0-18.13,13.91-32.72,33.51-32.72a34.2,34.2,0,0,1,22.53,8.13l-8.53,9.3a19.29,19.29,0,0,0-13.71-5c-11.07,0-19.5,9-19.5,20.28s8.23,20.37,19.5,20.37A20.08,20.08,0,0,0,175.27,75v-9.3H164.49v-10H187.8V80.34c-5.58,8.33-15.86,13.42-27.33,13.42C140.88,93.76,126.87,79.17,126.87,61Z"/><path d="M198.5,43.71h12.93v9.4c1.37-4,6.37-10.38,17.15-10.38V57c-11.37,0-17,5.19-17,16.85V92.69H198.5Z"/><path d="M232.37,68.2a25.15,25.15,0,0,1,25.37-25.47c13.32,0,23.8,11.36,23.8,25.27a44,44,0,0,1-.29,4.7H245.69c1.57,6.76,7.15,10,13.61,10a24.29,24.29,0,0,0,13.23-3.82l4.9,9.41a33.06,33.06,0,0,1-18.22,5.39C244.9,93.67,232.37,84.36,232.37,68.2ZM269.2,64A11.83,11.83,0,0,0,257.35,53.7c-5.69,0-10.58,4.11-11.86,10.28Z"/><path d="M290.84,95.14c6.07,0,8.33-2.06,10.09-5.88L302,87.1,281.53,43.71h13.33l9.89,22.92C306.22,70.06,308,75,308,75s2.06-5.77,3.14-8.62L320,43.71h13.13L311.41,94.06c-5.29,12-14.5,13-20.57,13Z"/></svg>